# xmcd
#
# Track frame offsets:
#	150
#	18196
#	32988
#	52404
#	69867
#	93302
#	117799
#	150747
#	191948
#
# Disc length: 3083 seconds
#
# Revision: 0
# Processed by: cddbd v1.4PL0 Copyright (c) Steve Scherf et al.
# Submitted via: EasyCDDAExtractor 4.6.0.1
#
DISCID=760c0909
DTITLE=Parola della Grazia - La mia vita è nelle Tue mani
DYEAR=1999
DGENRE=Gospel
TTITLE0=Combattiam nello Spirito
TTITLE1=Con gioia
TTITLE2=Chi è come Gesù
TTITLE3=Si ed Amen
TTITLE4=Amo Te Signor
TTITLE5=Tu Sei Santo
TTITLE6=Spirito di Dio
TTITLE7=Sotto le ali Tue
TTITLE8=La mia vita è nelle Tue mani
EXTD=
EXTT0=
EXTT1=
EXTT2=
EXTT3=
EXTT4=
EXTT5=
EXTT6=
EXTT7=
EXTT8=
PLAYORDER=
